<svg width="96" height="96" viewBox="0 0 96 96" fill="none" xmlns="http://www.w3.org/2000/svg">
<path d="M63.0599 56.46L86.1599 44.46L61.7199 42.26C63.0027 46.8769 63.4564 51.6847 63.0599 56.46V56.46ZM40.3799 55.18C43.6574 59.0854 47.429 62.5478 51.5999 65.48L33.4799 80.84L40.3799 55.18Z" stroke="#F24E1E" stroke-width="2" stroke-linecap="round" stroke-linejoin="round"/>
<path d="M74.24 43.4199C73.64 41.9599 73.42 41.5199 72.42 38.9199L87 40.6599L80.78 43.9999M37.56 65.7599L28 69.9999L9 69.7799L24.32 59.7799L34.88 57.5999L38.48 62.1999M47.56 68.9199L51.26 69.0399L41.38 77.3599L41.6 73.9999" stroke="#F24E1E" stroke-width="2" stroke-linecap="round" stroke-linejoin="round"/>
<path d="M51.2601 69.0398L72.5201 54.3198L73.1401 51.2798M24.3201 59.7798C22.1801 64.4398 24.7201 67.3798 27.9201 70.0798M59.0802 37.5198L78.2401 34.8198L86.4002 19.5598L66.6202 18.4598L61.0001 25.4398" stroke="#F24E1E" stroke-width="2" stroke-linecap="round" stroke-linejoin="round"/>
<path d="M66.6199 18.4602L55.0999 15.1602L56.9599 25.5402M34.8799 57.6002L61.8199 38.0002M59.0799 37.5202C60.9707 37.6825 62.805 38.2463 64.4605 39.1741C66.116 40.1019 67.5545 41.3722 68.6799 42.9002M72.4199 38.9202L70.2199 36.0002M59.0799 37.5202L46.2799 25.8402L60.9999 25.4402C59.1063 29.165 58.4344 33.3918 59.0799 37.5202V37.5202Z" stroke="#F24E1E" stroke-width="2" stroke-linecap="round" stroke-linejoin="round"/>
</svg>
